<?xml version="1.0" encoding="utf-8"?>
<!DOCTYPE svg PUBLIC "-//W3C//DTD SVG 1.0//EN" "http://www.w3.org/TR/2001/REC-SVG-20010904/DTD/svg10.dtd">
<svg version="1.0" xmlns="http://www.w3.org/2000/svg" width="64px" height="64px" viewBox="0 0 64 64" preserveAspectRatio="xMidYMid meet">
 <g fill="#000000">
  <path d="M8.94 42.26 c0 -1.44 0.18 -2.82 0.59 -4.48 1.33 -5.41 4.58 -10.06 9.19 -13.15 3.08 -2.06 6.44 -3.31 10.25 -3.79 1.26 -0.16 4.59 -0.16 5.78 0 3 0.41 5.46 1.19 7.95 2.52 0.86 0.46 2.47 1.52 3.14 2.05 4.10 3.30 6.85 7.78 7.91 12.86 0.28 1.34 0.39 2.26 0.43 3.63 l0.04 1.23 -22.64 0 -22.63 0 0 -0.87z m43.72 -0.65 c0.08 -0.08 -0.22 -2.17 -0.45 -3.17 -0.36 -1.54 -1.09 -3.56 -1.83 -4.96 -1.37 -2.64 -3.31 -5.01 -5.57 -6.80 -3.69 -2.92 -8.23 -4.51 -12.91 -4.50 -2.50 0.01 -4.64 0.36 -7 1.15 -5.39 1.81 -9.77 5.61 -12.32 10.69 -1.04 2.06 -1.85 4.76 -2.06 6.82 -0.02 0.21 -0.05 0.47 -0.07 0.60 l-0.03 0.23 21.10 -0.02 c11.60 -0.01 21.11 -0.03 21.13 -0.05z"/>
 </g>
 <g fill="#ffffff">
  <path d="M0 32 l0 -32 32 0 32 0 0 32 0 32 -32 0 -32 0 0 -32z m53.98 9.89 c-0.16 -4.56 -1.90 -9.16 -4.83 -12.81 -1.48 -1.83 -2.98 -3.21 -4.90 -4.49 -2.93 -1.95 -5.97 -3.08 -9.69 -3.58 -1.18 -0.16 -4.15 -0.16 -5.41 0 -3.14 0.40 -6.14 1.38 -8.69 2.83 -4.29 2.43 -7.56 6.03 -9.51 10.43 -1.12 2.54 -1.84 5.66 -1.84 7.98 l0 0.68 22.45 0 22.44 0 -0.04 -1.04z"/>
  <path d="M10.25 41.67 c0 -0.11 0.04 -0.55 0.09 -0.98 0.43 -3.62 1.86 -7.19 4.09 -10.15 2.97 -3.96 7.26 -6.76 12.13 -7.94 1.89 -0.46 3.22 -0.61 5.34 -0.61 3.49 -0.01 6.46 0.69 9.56 2.24 3.88 1.94 7.06 5.11 9.11 9.06 0.73 1.41 1.47 3.42 1.83 4.96 0.27 1.16 0.56 3.44 0.46 3.54 -0.03 0.03 -9.62 0.05 -21.33 0.06 l-21.28 0.02 0 -0.20z"/>
 </g>
</svg>